<?xml version="1.0" encoding="UTF-8" standalone="no"?><!DOCTYPE svg PUBLIC "-//W3C//DTD SVG 1.1//EN" "http://www.w3.org/Graphics/SVG/1.1/DTD/svg11.dtd"><svg width="100%" height="100%" viewBox="0 0 8000 4500" version="1.1" xmlns="http://www.w3.org/2000/svg" xmlns:xlink="http://www.w3.org/1999/xlink" xml:space="preserve" xmlns:serif="http://www.serif.com/" style="fill-rule:evenodd;clip-rule:evenodd;stroke-linecap:round;stroke-linejoin:round;stroke-miterlimit:1.5;"><rect id="Artboard1" x="0" y="0" width="8000" height="4500" style="fill:none;"/><clipPath id="_clip1"><rect x="0" y="0" width="8000" height="4500"/></clipPath><g clip-path="url(#_clip1)"><g><rect x="0" y="0" width="8000" height="4500" style="fill:#4a4a4a;stroke:#4a4a4a;stroke-width:4.17px;"/><rect x="0" y="0" width="8000" height="4500" style="fill:none;"/><clipPath id="_clip2"><rect x="0" y="0" width="8000" height="4500"/></clipPath><g clip-path="url(#_clip2)"><circle cx="7506.78" cy="974.75" r="1865.38" style="fill:#fe8a70;stroke:#fe8a70;stroke-width:4.17px;"/><circle cx="-493.221" cy="5474.75" r="1865.38" style="fill:#fe8a70;stroke:#fe8a70;stroke-width:4.17px;"/><circle cx="1656.31" cy="4500" r="1387.06" style="fill:#f55791;stroke:#f55791;stroke-width:4.17px;"/><path d="M429.126,3853.31c563.099,321.255 943.03,927.327 943.03,1621.44c-0,128.279 -12.977,253.552 -37.717,374.71c-610.526,-145.28 -1065.19,-694.692 -1065.19,-1349.46c0,-233.49 57.817,-453.583 159.881,-646.686Z" style="fill:#4a4a4a;"/><path d="M1097.17,-0c174.396,283.77 274.982,617.606 274.982,974.75c-0,858.834 -581.658,1582.89 -1372.16,1799.36l0,-2774.11l1097.17,-0Z" style="fill:#fe8a70;stroke:#fe8a70;stroke-width:4.17px;"/><path d="M9097.17,4500l-3180.79,0c328.237,-534.105 918.01,-890.627 1590.4,-890.627c672.385,-0 1262.16,356.522 1590.39,890.627Z" style="fill:#fe8a70;stroke:#fe8a70;stroke-width:4.17px;"/><path d="M3039.55,-0c2.537,34.205 3.829,68.814 3.829,103.723c-0,765.541 -621.523,1387.06 -1387.06,1387.06c-765.542,-0 -1387.07,-621.523 -1387.07,-1387.06c0,-34.909 1.293,-69.518 3.829,-103.723l2766.47,-0Z" style="fill:#f55791;stroke:#f55791;stroke-width:4.17px;"/><path d="M273.074,-0l824.1,-0c174.396,283.77 274.982,617.606 274.982,974.75c-0,163.35 -21.042,321.825 -60.545,472.792c-599.003,-153.402 -1042.37,-697.243 -1042.37,-1343.82c0,-34.909 1.293,-69.518 3.829,-103.723Z" style="fill:#4a4a4a;"/></g></g><g id="Layer1"></g></g></svg>