<?xml version="1.0" encoding="UTF-8" standalone="no"?><!DOCTYPE svg PUBLIC "-//W3C//DTD SVG 1.1//EN" "http://www.w3.org/Graphics/SVG/1.1/DTD/svg11.dtd"><svg width="100%" height="100%" viewBox="0 0 6260 1950" version="1.1" xmlns="http://www.w3.org/2000/svg" xmlns:xlink="http://www.w3.org/1999/xlink" xml:space="preserve" xmlns:serif="http://www.serif.com/" style="fill-rule:evenodd;clip-rule:evenodd;stroke-linejoin:round;stroke-miterlimit:2;"><rect id="Logo" x="0" y="0" width="6260" height="1950" style="fill:none;"/><g><path d="M2230.39,523.702l0,-128.883l-430.993,-0l-0,1026.48l134.06,-0l0,-448.8l221.005,-0l0,-128.883l-221.005,-0l0,-319.917l296.933,-0Z" style="fill:#474747;fill-rule:nonzero;"/><rect x="2309.2" y="394.819" width="134.061" height="1026.48" style="fill:#474747;fill-rule:nonzero;"/><path d="M2656.13,1293.88l0,-899.066l-134.06,-0l-0,1026.48l371.336,-0l-0,-127.417l-237.276,0Z" style="fill:#474747;fill-rule:nonzero;"/><path d="M3518.61,394.819l-183.108,790.393l-181.752,-790.393l-181.533,-0l-0,1026.48l134.06,-0l0,-627.618l145.131,627.618l168.188,-0c47.472,-211.161 96.301,-416.457 145.131,-627.618l0,627.618l135.417,-0l-0,-1026.48l-181.534,-0Z" style="fill:#474747;fill-rule:nonzero;"/><path d="M4209.94,523.702l-0,-128.883l-430.994,-0l0,1026.48l134.061,-0l-0,-448.8l221.005,-0l-0,-128.883l-221.005,-0l-0,-319.917l296.933,-0Z" style="fill:#474747;fill-rule:nonzero;"/><path d="M4393.48,1293.88l0,-899.066l-134.06,-0l-0,1026.48l371.336,-0l-0,-127.417l-237.276,0Z" style="fill:#474747;fill-rule:nonzero;"/><rect x="4709.56" y="394.819" width="134.061" height="1026.48" style="fill:#474747;fill-rule:nonzero;"/><path d="M5167.76,1421.3c99.053,-0 176.263,-46.866 215.534,-131.818c28.437,-63.082 29.792,-118.829 29.792,-124.697l-0,-64.549l-135.417,0l0,64.549c0,23.473 -13.57,129.098 -109.909,129.098c-96.34,0 -111.265,-107.093 -111.265,-129.098l-0,-513.459c-0,-22.005 14.925,-127.626 111.265,-127.626c96.339,-0 109.909,104.154 109.909,127.626l0,64.55l135.417,-0l-0,-64.55c-0,-5.868 -1.355,-61.615 -29.792,-124.697c-39.271,-84.946 -116.481,-131.812 -215.534,-131.812c-99.053,-0 -176.265,46.866 -215.535,131.812c-28.437,63.082 -29.791,118.829 -29.791,124.697l0,513.459c0,5.868 1.354,61.615 29.791,124.697c39.27,84.952 116.482,131.818 215.535,131.818Z" style="fill:#474747;fill-rule:nonzero;"/><path d="M5596.62,1119.22c13.559,-26.395 32.541,-54.257 47.455,-80.652l207.447,382.73l151.856,-0c-90.843,-168.636 -188.464,-344.604 -279.307,-513.239l279.307,-513.244l-157.28,-0l-249.478,456.054l0,-456.054l-134.06,-0l-0,1026.48l134.06,-0l0,-302.078Z" style="fill:#474747;fill-rule:nonzero;"/></g><g><path d="M380.961,961.16c-0,305.398 247.944,553.342 553.342,553.342c305.398,0 553.342,-247.944 553.342,-553.342c0,-305.398 -247.944,-553.342 -553.342,-553.342c-305.398,-0 -553.342,247.944 -553.342,553.342Z" style="fill:url(#_Linear1);"/><path d="M1337.7,1397.82c-108.582,-0 -196.599,-88.029 -196.599,-196.599c0,-108.581 88.017,-196.598 196.599,-196.598c108.582,0 196.611,88.017 196.611,196.598c-0,108.57 -88.029,196.599 -196.611,196.599m-393.197,215.609c-108.582,-0 -196.598,-88.017 -196.598,-196.599c-0,-108.582 88.016,-196.598 196.598,-196.598c108.582,-0 196.598,88.016 196.598,196.598c0,108.582 -88.016,196.599 -196.598,196.599m-213.728,-563.889c0,-30.396 24.628,-55.037 55.012,-55.037c30.397,0 55.037,24.641 55.037,55.037c0,30.384 -24.64,55.025 -55.037,55.025c-30.384,-0 -55.012,-24.641 -55.012,-55.025m-196.611,374.062c-108.569,-0 -196.598,-88.017 -196.598,-196.611c-0,-108.57 88.029,-196.599 196.598,-196.599c108.582,0 196.611,88.029 196.611,196.599c0,108.594 -88.029,196.611 -196.611,196.611m0,-855.639c108.582,0 196.611,88.017 196.611,196.599c0,108.582 -88.029,196.598 -196.611,196.598c-108.569,0 -196.598,-88.016 -196.598,-196.598c-0,-108.582 88.029,-196.599 196.598,-196.599m255.222,278.772c30.396,-0 55.037,24.64 55.037,55.024c0,30.384 -24.641,55.025 -55.037,55.025c-30.384,-0 -55.012,-24.641 -55.012,-55.025c0,-30.384 24.628,-55.024 55.012,-55.024m89.873,-35.275c-0,-30.383 24.64,-55.024 55.037,-55.024c30.383,0 55.024,24.641 55.024,55.024c0,30.397 -24.641,55.025 -55.024,55.025c-30.397,-0 -55.037,-24.628 -55.037,-55.025m110.061,317.808c0,30.384 -24.641,55.025 -55.024,55.025c-30.397,-0 -55.037,-24.641 -55.037,-55.025c-0,-30.384 24.64,-55.024 55.037,-55.024c30.383,-0 55.024,24.64 55.024,55.024m-55.024,-90.963c-41.871,-0 -75.803,-33.933 -75.803,-75.803c-0,-41.858 33.932,-75.803 75.803,-75.803c41.857,0 75.802,33.945 75.802,75.803c0,41.87 -33.945,75.803 -75.802,75.803m-0,-725.601c108.569,-0 196.598,88.017 196.598,196.598c0,108.582 -88.029,196.599 -196.598,196.599c-108.582,-0 -196.611,-88.017 -196.611,-196.599c-0,-108.581 88.029,-196.598 196.611,-196.598m196.322,736.836c0,30.384 -24.64,55.025 -55.012,55.025c-30.396,-0 -55.037,-24.641 -55.037,-55.025c0,-30.396 24.641,-55.037 55.037,-55.037c30.372,0 55.012,24.641 55.012,55.037m-51.425,-92.756c-30.384,-0 -55.025,-24.641 -55.025,-55.025c0,-30.384 24.641,-55.024 55.025,-55.024c30.396,-0 55.024,24.64 55.024,55.024c0,30.384 -24.628,55.025 -55.024,55.025m258.507,-414.602c108.582,-0 196.611,88.016 196.611,196.598c-0,108.582 -88.029,196.598 -196.611,196.598c-108.582,0 -196.599,-88.016 -196.599,-196.598c0,-108.582 88.017,-196.598 196.599,-196.598m-403.404,-353.797c-424.384,-0 -768.387,344.028 -768.387,768.399c0,424.371 344.003,768.386 768.387,768.386c424.37,0 768.386,-344.015 768.386,-768.386c0,-424.371 -344.016,-768.399 -768.386,-768.399" style="fill:#ff8870;fill-rule:nonzero;"/><path d="M1487.64,1561.9c-85.885,50.398 -157.825,85.547 -201.2,105.435c258.294,-89.785 640.769,144.282 640.769,144.282l172.886,-198.191c-73.646,-47.713 -227.334,-134.79 -294.559,-137.975c-7.938,-0.388 -16.453,-0.627 -25.544,-0.627c-67.853,0 -167.293,13.644 -292.352,87.076Zm-245.591,124.859c-0,-0 16.138,-6.471 44.391,-19.424c-15.261,5.304 -30.108,11.75 -44.391,19.424Z" style="fill:url(#_Linear2);fill-rule:nonzero;"/></g><defs><linearGradient id="_Linear1" x1="0" y1="0" x2="1" y2="0" gradientUnits="userSpaceOnUse" gradientTransform="matrix(1106.68,0,0,1106.68,380.954,961.155)"><stop offset="0" style="stop-color:#f60b74;stop-opacity:1"/><stop offset="0.04" style="stop-color:#f60b74;stop-opacity:1"/><stop offset="0.89" style="stop-color:#d13a9b;stop-opacity:1"/><stop offset="1" style="stop-color:#d13a9b;stop-opacity:1"/></linearGradient><linearGradient id="_Linear2" x1="0" y1="0" x2="1" y2="0" gradientUnits="userSpaceOnUse" gradientTransform="matrix(858.04,0,0,858.04,1242.05,1643.22)"><stop offset="0" style="stop-color:#f60b74;stop-opacity:1"/><stop offset="0.04" style="stop-color:#f60b74;stop-opacity:1"/><stop offset="0.89" style="stop-color:#d13a9b;stop-opacity:1"/><stop offset="1" style="stop-color:#d13a9b;stop-opacity:1"/></linearGradient></defs></svg>